PathFileType	4	(X/Y/Z)	C:/Users/beibeiliu/ov580/test_trc/User3\sequence.18_training_dense_right.trc
DataRate	CameraRate	NumFrames	NumMarkers	Units	OrigDataRate	OrigDataStartFrame	OrigNumFrames
120	120	22	19	mm	120	37	72
Frame#	Time	ThumbCMC			ThumbMCP			ThumbIP			ThumbTip			IndexMCP			IndexPIP			IndexTip			MiddleMCP			MiddlePIP			MiddleTip			RingMCP			RingPIP			RingTip			PinkyMCP			PinkyPIP			PinkyTip			BackHand1			BackHand2			BackHand3	
		X0	Y0	Z0	X1	Y1	Z1	X2	Y2	Z2	X3	Y3	Z3	X4	Y4	Z4	X5	Y5	Z5	X6	Y6	Z6	X7	Y7	Z7	X8	Y8	Z8	X9	Y9	Z9	X10	Y10	Z10	X11	Y11	Z11	X12	Y12	Z12	X13	Y13	Z13	X14	Y14	Z14	X15	Y15	Z15	X16	Y16	Z16	X17	Y17	Z17	X18	Y18	Z18	
36	0.3	158.57	25.7721	5.60682	149.421	7.82372	-16.7723	146.552	-7.30384	-47.375	156.542	-21.5215	-63.1654	180.189	5.81996	-63.7341	171.41	-24.3381	-56.5172	171.387	-12.1399	-26.3954	193.392	-3.96376	-59.4621	189.741	-29.2647	-42.6308	184.426	-3.4454	-9.96383	212.737	-5.34107	-45.5674	203.104	-28.2081	-25.2521	195.651	-5.61568	-2.5823	229.01	-5.54683	-33.7988	214.631	-26.6598	-16.0298	206.399	-10.7664	2.83531	214.527	42.7759	-14.0133	212.484	51.6407	13.0625	183.001	50.894	-1.62741	
37	0.308333	150.39	26.1235	15.4693	134.884	5.14781	-6.77628	129.04	-15.1339	-33.9489	139.431	-33.2429	-47.8512	162.01	-4.99219	-53.0432	154.985	-33.817	-41.9902	151.979	-13.8365	-13.2231	178.568	-17.2278	-49.0842	172.308	-38.8685	-26.532	173.905	-8.27444	-0.489524	196.323	-19.0463	-36.4685	183.866	-36.2536	-10.6298	179.051	-12.026	8.06775	211.724	-21.9694	-24.6138	196.303	-34.0583	-3.26657	190.478	-10.396	13.5824	207.61	34.7283	-13.3802	210.576	46.0631	11.9277	176.146	45.0192	-6.0999	
38	0.316667	141.569	34.0925	21.3719	122.791	13.9576	1.91415	111.219	-6.24218	-21.6519	115.29	-27.1913	-32.4412	140.942	-9.79025	-45.189	127.633	-31.5647	-27.9505	136.118	-10.283	-3.4101	159.418	-21.6009	-38.2674	144.287	-38.3986	-14.9099	152.952	-5.42079	9.68346	170.553	-27.5661	-25.7935	162.105	-39.5682	-0.9324	161.057	-10.5847	18.1727	189.678	-28.0574	-16.1582	176.337	-38.4674	5.5167	173.315	-14.0356	22.0475	196.355	25.2494	-10.7727	201.36	40.4533	12.2306	170.734	45.3092	-3.32646	
39	0.325	136.47	49.1926	22.8424	116.193	32.1234	0.651505	102.061	15.8636	-17.8911	96.8136	-4.68483	-26.6764	125.601	3.96344	-37.7924	102.55	-17.4683	-24.7641	112.165	0.766644	3.98739	132.784	-16.9122	-31.3086	118.671	-27.6414	-2.78039	138.309	1.35428	16.0689	147.877	-28.5393	-15.6224	133.53	-30.4124	10.193	144.366	-1.42641	24.909	161.771	-29.8087	-7.90716	147.086	-32.9851	17.2022	156.221	-6.89508	30.8664	189.5	15.4786	-7.75694	200.454	31.6365	18.0515	168.255	46.3641	-1.99099	
40	0.333333	139.799	59.8794	19.618	116.6	52.1618	1.596	97.2394	40.107	-18.3251	88.1402	20.4879	-30.106	115.922	15.1808	-37.7278	89.0092	0.370611	-24.1968	99.6643	18.2003	5.56022	119.157	-7.33542	-27.4518	96.6393	-9.6699	-4.82377	121.995	12.7949	19.2031	130.283	-18.9125	-11.7705	110.651	-17.0645	12.6582	129.15	4.52259	30.1772	139.431	-28.9627	-0.965327	123.023	-24.1721	22.4815	138.582	-3.55343	37.1325	177.015	11.8619	-4.45315	194.212	24.3867	19.4747	168.766	43.1746	2.15911	
41	0.341667	147.161	63.107	19.7011	123.647	66.3192	-0.487305	104.352	53.7474	-23.0168	86.8364	40.7754	-36.6463	112.394	26.1831	-39.9757	80.9846	21.4258	-28.5937	88.9363	37.1881	-0.870909	104.657	6.08388	-29.1898	84.596	7.82942	-5.02323	114.713	22.2923	17.6439	110.085	-9.20195	-11.5304	92.5496	-1.01411	9.16195	119.902	15.9373	28.0128	121.046	-21.3023	0.6002	102.495	-7.14303	20.6234	121.725	3.38504	37.2167	169.962	5.31889	0.481317	182.807	13.241	23.0462	169.199	42.3988	3.15819	
42	0.35	157.51	60.1335	17.0045	138.516	68.5558	-4.38897	117.272	64.1549	-30.0579	98.1833	55.2532	-44.6652	114.611	28.7823	-42.5513	86.1678	35.7422	-37.4717	93.0399	50.6361	-8.5833	102.433	13.9121	-32.2606	81.0139	24.7864	-14.6228	110.56	34.4178	12.9153	104.387	4.6763	-15.8351	86.0044	16.7317	5.54039	110.693	28.1647	22.669	106.245	-12.0847	-0.384405	89.2806	3.76333	16.1616	113.855	14.5151	34.3865	161.62	-1.0846	3.58139	175.305	2.26158	26.7197	170.718	32.5621	1.77296	
43	0.358333	169.994	57.1988	14.7802	154.686	64.1761	-8.95349	136.658	64.8994	-33.4701	117.118	58.2703	-46.0966	128.162	29.7901	-44.7347	97.0651	49.3755	-47.0532	103.652	61.9	-19.4237	112.174	20.6597	-35.9839	89.4279	42.6567	-23.9561	115.418	44.2872	4.88986	105.189	10.2856	-20.6184	89.0892	31.8742	-1.41343	113.932	31.7164	18.2588	99.0968	-1.54586	-4.57671	89.3602	20.7186	8.89649	112.335	22.1798	28.7107	156.246	-5.39909	6.17806	169.91	-4.60176	29.6099	174.767	20.9976	7.83592	
44	0.366667	178.011	44.3531	13.5545	170.899	54.3622	-11.0671	154.442	55.0962	-36.987	131.044	46.9863	-47.6998	140.582	25.058	-53.3513	117.482	45.1229	-59.6458	116.463	58.8863	-27.5485	121.63	20.3234	-42.3781	102.165	42.3435	-30.2921	128.181	41.4009	-0.750245	109.491	13.068	-25.2933	99.1676	36.7102	-9.03866	122.856	32.7448	11.5799	107.428	4.18035	-8.68138	96.9835	26.2328	4.46822	120.03	25.7228	20.6887	155.529	-13.6888	4.55265	168.672	-10.0874	36.7111	182.113	12.5397	9.27189	
45	0.375	191.217	32.726	14.4423	186.108	39.1744	-16.1122	171.783	37.7365	-43.5657	144.063	27.4514	-50.0675	160.997	8.2706	-50.7492	141.158	31.8827	-66.9761	138.52	51.1573	-37.704	140.294	7.57188	-46.9637	123.101	34.275	-43.9811	142.548	32.6315	-7.51371	128.471	2.19934	-29.1538	114.788	29.8759	-19.4705	136.781	28.1224	4.62467	114.562	-3.03134	-13.9678	110.126	20.8783	-8.08673	128.481	20.4245	19.0498	164.452	-20.3976	9.12382	172.239	-20.9349	41.7124	192.888	0.399013	9.10082	
46	0.383333	204.351	25.5761	14.8187	200.036	26.6629	-14.2288	187.339	21.4119	-45.8918	164.19	13.3181	-48.8905	181.76	-4.14507	-52.1934	160.433	13.5491	-70.0125	155.556	36.5369	-42.9001	157.258	-7.87708	-47.4739	141.768	21.0787	-49.3498	157.149	22.3513	-13.4459	144.236	-10.2936	-32.9242	130.917	18.9489	-28.4608	150.632	18.8629	-1.96394	126.139	-13.5846	-18.6919	123.256	14.3217	-11.1547	142.703	14.2333	8.23113	168.665	-31.5324	10.9605	176.798	-27.3251	41.1943	200.013	-11.2833	16.0605	
47	0.391667	209.891	21.8573	21.0214	213.662	22.8995	-13.9889	206.275	15.4682	-42.9132	181.129	0.927325	-48.4895	201.231	-13.2481	-48.5938	178.618	1.02989	-71.1687	174.578	27.5349	-51.642	172.564	-19.0994	-48.4037	158.006	10.6122	-51.8891	173.396	15.6107	-15.2835	159.394	-21.1876	-34.1367	143.468	7.4282	-32.3523	161.21	11.7624	-6.99209	143.196	-23.4389	-21.4099	139.347	2.69087	-23.0429	153.776	9.43604	1.60158	182.252	-36.8919	17.2494	187.264	-26.3916	47.1959	211.367	-12.1526	23.9097	
48	0.4	217.215	29.0865	19.9763	223.02	30.0391	-11.4728	220.296	18.3861	-42.5924	202.716	5.49298	-54.538	214.642	-14.6846	-50.8748	200.841	-0.105717	-73.0388	184.978	22.4168	-53.3969	190.923	-20.41	-48.9711	174.199	5.52162	-56.3853	182.628	14.8778	-17.7773	178.566	-23.6965	-38.1706	158.63	-1.10959	-41.0066	173.195	6.48096	-7.10302	161.098	-30.3557	-22.6656	147.347	-5.69883	-26.6242	161.945	5.37916	-3.44285	196.556	-33.1798	19.3976	196.161	-25.3815	46.0237	221.815	-6.28587	25.0245	
49	0.408333	217.14	37.4227	18.2946	224.655	39.351	-14.3026	226.632	37.7084	-40.9956	218.86	20.9082	-61.5841	227.053	-2.14954	-46.8435	204.382	9.81012	-69.1531	193.681	28.4307	-44.2771	211.78	-11.2364	-47.287	181.38	5.84915	-54.6303	187.715	17.2559	-19.9216	192.757	-22.7518	-39.4189	172.373	-1.82689	-44.0724	180.508	9.15263	-9.7817	183.613	-30.331	-24.8726	162.039	-12.0182	-30.1373	168.216	3.60399	-7.05112	214.706	-26.1304	16.3508	209.918	-14.7177	43.7043	231.394	6.08545	25.6963	
50	0.416667	213.235	52.8102	14.9027	215.725	58.4143	-14.7768	219.3	54.8952	-41.7418	220.111	42.2736	-66.3993	234.84	19.5394	-51.7503	207.816	25.4465	-70.0804	193.281	36.7656	-42.6719	219.595	3.57982	-53.2636	191.36	13.5213	-58.2189	189.018	18.7737	-18.7564	208.528	-14.0296	-40.8838	181.509	-2.16235	-44.1656	184.821	10.1792	-9.72142	201.103	-24.2894	-28.6876	178.824	-9.7952	-34.9824	175.559	-0.637925	-6.0752	232.361	-8.98307	11.3745	224.364	-3.26352	41.6032	233.894	23.7685	24.8921	
51	0.425	198.817	64.159	17.9923	203.413	67.8695	-14.7862	205.269	67.064	-41.2551	209.644	59.4511	-65.8076	232.231	42.1145	-49.6061	206.175	37.7235	-68.8012	188.429	45.459	-39.5231	226.434	22.5385	-50.3265	194.226	21.0351	-59.0668	190.106	29.7424	-17.5681	221.07	1.17448	-41.6757	188.171	6.36376	-43.4252	189.232	14.4614	-10.1123	217.708	-10.7065	-33.2509	191.991	-10.5584	-35.8216	185.77	4.31031	-6.10936	242.449	12.2323	9.50369	231.925	10.1239	41.3256	232.839	45.7672	23.4873	
52	0.433333	187.811	67.743	17.5577	185.747	75.3826	-13.7499	191.709	75.5537	-41.8023	194.595	73.3406	-64.7906	222.999	61.3727	-53.2881	196.69	51.6785	-68.3986	185.718	45.8893	-35.4036	225.727	40.7304	-54.479	195.762	31.4295	-59.7974	191.679	30.5916	-19.4259	226.328	23.426	-46.4669	198.704	12.5157	-45.8717	194.771	19.8623	-11.7307	231.46	8.94975	-35.1656	204.747	2.1731	-39.4872	194.86	7.93468	-11.132	246.587	33.6372	9.58546	232.91	31.1762	41.1355	224.259	59.6286	22.6773	
53	0.441667	176.943	64.7597	17.0767	170.783	74.787	-13.2869	174.06	78.5496	-40.4306	183.333	78.5738	-67.8078	212.179	77.5359	-50.2767	195.993	58.9216	-70.4937	182.402	46.8258	-42.361	219.941	60.4635	-54.0575	196.229	34.7961	-60.268	192.735	32.8376	-22.6966	229.206	38.881	-49.5116	207.269	19.9452	-49.795	196.776	27.4283	-16.2218	239.15	26.3708	-37.7674	217.441	9.75789	-42.6899	202.602	13.0337	-16.4485	242.876	53.9265	10.4688	233.1	45.6555	38.1414	212.727	73.6741	22.4827	
54	0.45	168.569	57.6337	14.7094	160.193	65.0849	-13.2338	160.354	74.2382	-44.0274	164.565	74.0139	-65.513	195.937	81.6824	-56.4293	180.824	57.7273	-71.8853	173.563	44.6464	-44.6754	207.534	67.0179	-58.5445	191.066	37.5818	-62.3801	185.632	35.4204	-26.3064	219.494	52.1452	-52.3179	208.131	25.6906	-53.0042	197.231	25.9851	-21.3617	233.124	41.0347	-44.3858	215.776	20.2955	-44.9611	206.769	18.0133	-13.7707	229.621	69.4411	3.86353	226.74	55.8183	34.9846	198.553	79.3408	17.7157	
55	0.458333	156.22	53.9077	12.3242	146.301	59.3944	-17.2434	140.147	62.3769	-43.8394	147.603	63.4848	-69.8596	171.789	77.647	-59.3554	165.092	51.0476	-74.0922	159.835	36.7205	-46.7487	189.054	64.5254	-61.7704	177.662	34.2127	-65.6888	177.472	32.2282	-24.8505	207.27	53.2207	-54.1974	190.665	24.761	-54.2305	189.709	23.8552	-20.6367	219.443	46.307	-46.091	207.29	19.3538	-47.35	196.522	18.52	-19.7237	214.852	75.5666	-1.66517	213.084	62.592	30.2294	178.84	79.5046	13.5617	
56	0.466667	141.383	52.4246	13.9437	128.165	51.3758	-15.2632	122.878	53.5845	-42.8484	123.719	51.2737	-67.1382	151.875	68.3024	-61.05	141.156	43.7307	-74.7037	140.029	26.7924	-43.7818	168.112	57.9659	-63.5492	160.474	27.2603	-67.9677	159.084	22.353	-28.1523	184.024	49.1771	-56.3849	178.083	17.2899	-56.6124	175.046	16.3274	-23.8349	198.969	42.8655	-49.2756	191.311	15.1462	-50.5528	186.345	13.3609	-20.1391	198.556	72.4333	-4.70526	199.328	66.8468	25.394	166.485	77.3953	10.272	
57	0.475	129.21	49.3743	18.9285	113.781	46.7446	-11.6625	103.082	45.0268	-40.024	104.649	39.8937	-58.1389	132.296	64.4114	-56.9161	123.834	37.1659	-74.4664	123.842	16.6168	-46.9532	153.105	52.5841	-63.8643	140.765	20.9774	-70.2741	143.332	9.67255	-34.5683	171.293	43.6611	-57.5965	160.923	14.4898	-63.0147	153.335	6.56307	-29.8079	187.437	36.394	-52.7235	173.351	14.1194	-55.9504	165.897	4.59568	-24.5094	182.457	69.659	-6.0409	189.295	65.0572	20.4673	155.744	74.6643	10.3692	
